<svg width="96" height="96" fill="none" xmlns="http://www.w3.org/2000/svg"><path fill-rule="evenodd" clip-rule="evenodd" d="M57.646 13.086a2 2 0 0 1 0 2.828c-1.64 1.64-3.67 4.446-5.586 7.4a125.148 125.148 0 0 0-4.572 7.644 2 2 0 0 1-3.512-1.916 129.14 129.14 0 0 1 4.728-7.906c1.933-2.98 4.154-6.09 6.114-8.05a2 2 0 0 1 2.828 0z" fill="#77A90D"/><path fill-rule="evenodd" clip-rule="evenodd" d="M36.792 15.515a2 2 0 0 1 2.425-1.455c3.529.882 10.176 5.682 13.919 17.328a2 2 0 0 1-3.808 1.224C45.87 21.857 40.05 18.392 38.247 17.94a2 2 0 0 1-1.455-2.425z" fill="#C1EA1D"/><path fill-rule="evenodd" clip-rule="evenodd" d="M48.232 9a2 2 0 0 1 2 2v17a2 2 0 1 1-4 0V11a2 2 0 0 1 2-2z" fill="#9AD51C"/><path d="M58.232 44c0 16.292-7 37.5-10 37.5s-10-21.208-10-37.5 2-21.5 10-21.5 10 5.208 10 21.5z" fill="#FF8718"/><path fill-rule="evenodd" clip-rule="evenodd" d="M50.026 82.868c-.402.296-1.017.632-1.794.632-.777 0-1.392-.337-1.794-.632-.414-.306-.77-.693-1.072-1.079-.606-.775-1.198-1.813-1.765-2.99-1.142-2.378-2.335-5.652-3.415-9.383-2.16-7.458-3.954-17.027-3.954-25.416 0-8.096.475-13.894 2.176-17.68.889-1.978 2.15-3.5 3.901-4.492 1.718-.973 3.723-1.328 5.923-1.328s4.204.355 5.922 1.328c1.753.991 3.013 2.514 3.902 4.493 1.701 3.785 2.176 9.583 2.176 17.679 0 8.389-1.794 17.958-3.954 25.416-1.08 3.731-2.273 7.005-3.415 9.382-.567 1.178-1.159 2.216-1.765 2.991-.302.386-.658.773-1.072 1.079zM48.232 81.5c3 0 10-21.208 10-37.5s-2-21.5-10-21.5-10 5.208-10 21.5 7 37.5 10 37.5z" fill="#A44703"/><path d="M46.785 24.791c2.583.714 3.81 4.433 2.74 8.31-1.07 3.875-5.21 22.612-7.793 21.899-2.584-.713-2.633-20.607-1.563-24.483 1.07-3.875 4.032-6.439 6.616-5.726z" fill="#FFA858"/><path fill-rule="evenodd" clip-rule="evenodd" d="M46.232 79.498c3.345-5.657 8-22.212 8-35.498 0-14.84-1.66-20.483-8-21.372.62-.087 1.287-.128 2-.128 8 0 10 5.208 10 21.5s-7 37.5-10 37.5c-.554 0-1.243-.722-2-2.002z" fill="#EA6E1B"/><path fill-rule="evenodd" clip-rule="evenodd" d="M37.732 33.5a1 1 0 0 1 1-1h5.5a1 1 0 1 1 0 2h-5.5a1 1 0 0 1-1-1zM47.232 37.5a1 1 0 0 1 1-1h5.5a1 1 0 1 1 0 2h-5.5a1 1 0 0 1-1-1zM50.232 28.5a1 1 0 0 1 1-1h5.5a1 1 0 1 1 0 2h-5.5a1 1 0 0 1-1-1zM40.232 25.5a1 1 0 0 1 1-1h5.5a1 1 0 1 1 0 2h-5.5a1 1 0 0 1-1-1zM49.232 42.5a1 1 0 0 1 1-1h5.5a1 1 0 1 1 0 2h-5.5a1 1 0 0 1-1-1zM37.232 41.5a1 1 0 0 1 1-1h5.5a1 1 0 1 1 0 2h-5.5a1 1 0 0 1-1-1zM45.232 48.5a1 1 0 0 1 1-1h5.5a1 1 0 1 1 0 2h-5.5a1 1 0 0 1-1-1zM50.232 57.5a1 1 0 0 1 1-1h5.5a1 1 0 1 1 0 2h-5.5a1 1 0 0 1-1-1zM38.232 54.5a1 1 0 0 1 1-1h5.5a1 1 0 1 1 0 2h-5.5a1 1 0 0 1-1-1zM39.232 62.5a1 1 0 0 1 1-1h5.5a1 1 0 1 1 0 2h-5.5a1 1 0 0 1-1-1zM48.232 67.5a1 1 0 0 1 1-1h5.5a1 1 0 1 1 0 2h-5.5a1 1 0 0 1-1-1zM42.232 72.5a1 1 0 0 1 1-1h5.5a1 1 0 1 1 0 2h-5.5a1 1 0 0 1-1-1zM44.232 78.5a1 1 0 0 1 1-1h5.5a1 1 0 1 1 0 2h-5.5a1 1 0 0 1-1-1z" fill="#CE5F14"/><path fill-rule="evenodd" clip-rule="evenodd" d="m46.396 30.11-.009.012-.029.045a31.807 31.807 0 0 0-.835 1.34c-.054.097-.1.18-.133.246-.034.064-.047.095-.049.099a2 2 0 0 1-3.705-1.507c.198-.488.61-1.163.868-1.578a38.796 38.796 0 0 1 .515-.802l.035-.053.013-.02L44.732 29l-1.665-1.109a2 2 0 0 1 3.329 2.218z" fill="#fff"/></svg>